<svg width="125" height="110" viewBox="0 0 125 110" fill="none" xmlns="http://www.w3.org/2000/svg">
<rect width="121" height="110" rx="24" fill="#F30000"/>
<path d="M27.863 88V22.5455H43.6833V50.223H44.5463L66.1833 22.5455H84.8162L61.613 51.7571L85.2316 88H66.3112L50.0115 62.272L43.6833 70.2621V88H27.863ZM99.8455 88.9268C97.5443 88.9268 95.5734 88.1172 93.9328 86.4979C92.3135 84.8786 91.5145 82.9183 91.5358 80.6172C91.5145 78.3587 92.3135 76.4304 93.9328 74.8324C95.5734 73.2131 97.5443 72.4034 99.8455 72.4034C102.019 72.4034 103.936 73.2131 105.598 74.8324C107.282 76.4304 108.134 78.3587 108.155 80.6172C108.134 82.1513 107.729 83.5469 106.941 84.804C106.174 86.0611 105.162 87.0625 103.904 87.8082C102.669 88.554 101.316 88.9268 99.8455 88.9268Z" fill="white"/>
</svg>
