<svg width="125" height="110" viewBox="0 0 125 110" fill="none" xmlns="http://www.w3.org/2000/svg">
<rect width="121" height="110" rx="24" fill="#F30000"/>
<path d="M26.6364 64.0909V84H15.5227V49.0909H26.0909V55.5H26.4773C27.25 53.3636 28.5682 51.6894 30.4318 50.4773C32.2955 49.25 34.5152 48.6364 37.0909 48.6364C39.5455 48.6364 41.6742 49.1894 43.4773 50.2955C45.2955 51.3864 46.7045 52.9167 47.7045 54.8864C48.7197 56.8409 49.2197 59.1288 49.2045 61.75V84H38.0909V63.9318C38.1061 61.9924 37.6136 60.4773 36.6136 59.3864C35.6288 58.2955 34.2576 57.75 32.5 57.75C31.3333 57.75 30.303 58.0076 29.4091 58.5227C28.5303 59.0227 27.8485 59.7424 27.3636 60.6818C26.8939 61.6212 26.6515 62.7576 26.6364 64.0909ZM56.0852 84V37.4545H67.3352V57.1364H67.9489L83.3352 37.4545H96.5852L80.0852 58.2273L96.8807 84H83.4261L71.8352 65.7045L67.3352 71.3864V84H56.0852ZM107.273 84.6591C105.636 84.6591 104.235 84.0833 103.068 82.9318C101.917 81.7803 101.348 80.3864 101.364 78.75C101.348 77.1439 101.917 75.7727 103.068 74.6364C104.235 73.4848 105.636 72.9091 107.273 72.9091C108.818 72.9091 110.182 73.4848 111.364 74.6364C112.561 75.7727 113.167 77.1439 113.182 78.75C113.167 79.8409 112.879 80.8333 112.318 81.7273C111.773 82.6212 111.053 83.3333 110.159 83.8636C109.28 84.3939 108.318 84.6591 107.273 84.6591Z" fill="white"/>
</svg>
